<svg xmlns="http://www.w3.org/2000/svg" viewBox="0 0 487.7 190.6"><path d="M318.2 52.4l-27 15.4c4.8 8.1 7.5 17.4 7.5 27.5 0 30.2-24.8 54.7-55.3 54.7-22.2 0-41.3-12.9-50.1-31.6-3.3-7-5.2-14.8-5.2-23.1 0-10.2 2.8-19.7 7.7-27.9l-27-15.4c-2.2 3.7-4.1 7.5-5.8 11.6l-18 10.2v42.9l18 10.2c2.4 5.9 5.4 11.5 9 16.6 1.1 1.6 2.2 3.1 3.4 4.6V169l37.4 21.3 18.2-10.4c4 .6 8.2.9 12.4.9s8.3-.3 12.4-.9l18.6 10.6 36.9-21.1v-21.3c5.1-6.4 9.3-13.5 12.4-21.2l18.8-10.8V74.3l-18.8-10.8c-1.5-3.8-3.4-7.5-5.5-11.1z" fill="#fcba36"/><path d="M311.3 42.4V21.1L274.4 0l-18.6 10.6c-4-.6-8.2-.9-12.4-.9s-8.3.3-12.4.9L212.8.3l-37.4 21.3v20.8c-2.4 3-4.6 6.3-6.6 9.6l27 15.4c.7-1.2 1.5-2.4 2.4-3.6 7.1-10 17.6-17.5 29.8-21v73c4.3 3.2 9.7 5.1 15.5 5.1 5.9 0 11.3-2 15.7-5.4V42.9c13.6 4 25.1 13 32.1 25l27-15.4c-2.1-3.6-4.4-7-7-10.1z" fill="#1ba5de"/><path d="M125.5 95.7c0-4.1-.3-8-.9-11.9l10.5-18-20.8-35.7h-21c-6.3-4.9-13.3-9-20.9-12L61.8 0H20.4L9.8 18.2C6.5 19.5 3.3 21 .3 22.7L15 48.9v67c4.3 3.2 9.7 5.1 15.5 5.1 5.9 0 11.3-2 15.7-5.4v-73C73.6 45.1 95.1 68 95.1 95.7c0 21.4-12.8 39.9-31.2 48.4-6.9 3.2-14.6 5-22.8 5-9.6 0-18.5-2.5-26.3-6.8L0 168.6c3.1 1.7 6.4 3.3 9.7 4.6l10.1 17.3h42.5l10.1-17.3c5.8-2.3 11.3-5.2 16.4-8.7 1.5-1 3-2.1 4.5-3.3h20.5l21.1-36.1-10.3-17.6c.6-3.7.9-7.7.9-11.8z" fill="#f05842"/><path d="M446.6 148.2c-29.8 0-54-23.9-54-53.4 0-21.4 12.8-39.9 31.2-48.4 6.9-3.2 14.6-5 22.8-5 9.6 0 18.5 2.5 26.3 6.8l14.8-26.3c-3.1-1.7-6.4-3.3-9.7-4.6L467.8 0h-42.4l-10.1 17.3c-5.8 2.3-11.3 5.2-16.4 8.7-1.5 1-3 2.1-4.5 3.3h-20.5l-21.1 36.1L363.1 83c-.6 3.9-.9 7.9-.9 11.9 0 4.1.3 8 .9 11.9l-10.5 18 20.8 35.6h21c6.3 4.9 13.3 9 20.9 12l10.6 18.2h41.4l10.6-18.2c3.3-1.3 6.4-2.8 9.5-4.5l-14.7-26.3c-7.8 4.2-16.6 6.6-26.1 6.6z" fill="#6dbe56"/></svg>